<?xml version="1.0" standalone="no"?>
<!DOCTYPE svg PUBLIC "-//W3C//DTD SVG 20010904//EN"
 "http://www.w3.org/TR/2001/REC-SVG-20010904/DTD/svg10.dtd">
<svg version="1.0" xmlns="http://www.w3.org/2000/svg"
 width="600.000000pt" height="600.000000pt" viewBox="0 0 600.000000 600.000000"
 preserveAspectRatio="xMidYMid meet">
<metadata>
Created by potrace 1.15, written by Peter Selinger 2001-2017
</metadata>
<g transform="translate(0.000000,600.000000) scale(0.100000,-0.100000)"
fill="#000000" stroke="none">
<path d="M0 3000 l0 -3000 3000 0 3000 0 0 3000 0 3000 -3000 0 -3000 0 0
-3000z m1184 2084 c3 -9 6 -275 6 -592 l0 -577 77 73 c43 40 103 90 133 110
30 20 57 39 60 42 3 3 37 20 75 38 39 19 77 37 85 41 8 5 51 18 95 30 44 12
98 28 120 34 55 16 353 15 430 -1 62 -14 138 -36 190 -57 17 -7 46 -18 65 -25
19 -8 52 -24 72 -37 21 -13 41 -23 44 -23 16 0 164 -121 229 -186 92 -94 113
-117 128 -146 6 -12 21 -35 32 -49 l19 -26 23 34 c13 19 23 37 23 41 0 10 190
225 190 215 0 -4 6 -1 13 7 18 23 134 110 146 110 6 0 11 4 11 8 0 14 136 69
263 107 261 78 565 55 839 -64 26 -11 72 -36 103 -56 30 -19 58 -35 61 -35 3
0 11 -6 18 -12 8 -7 28 -24 46 -38 62 -48 127 -116 186 -195 112 -150 137
-197 181 -340 45 -146 53 -185 64 -305 10 -104 10 -121 -4 -134 -14 -14 -123
-16 -996 -16 l-981 0 0 -42 c0 -90 50 -298 72 -298 4 0 8 -7 8 -15 0 -9 16
-41 35 -71 19 -30 35 -57 35 -61 0 -3 32 -40 72 -82 66 -70 88 -88 143 -123
11 -7 22 -15 25 -18 7 -7 110 -56 145 -69 112 -41 334 -49 480 -17 82 18 243
89 305 134 70 52 220 216 220 241 0 6 5 11 10 11 6 0 10 7 10 15 0 8 4 15 8
15 5 0 18 18 31 40 12 22 26 42 31 45 8 5 54 -16 242 -111 21 -11 37 -25 38
-31 0 -21 -58 -138 -85 -169 -14 -16 -25 -33 -25 -37 0 -4 -13 -22 -30 -40
-16 -18 -30 -35 -30 -40 0 -13 -163 -168 -205 -196 -22 -14 -42 -29 -45 -33
-8 -11 -190 -102 -230 -115 -154 -52 -235 -66 -405 -69 -205 -3 -303 10 -455
63 -52 18 -108 40 -130 52 -76 40 -132 74 -160 98 -76 63 -205 202 -247 266
-42 63 -73 85 -73 52 0 -8 -4 -15 -8 -15 -4 0 -16 -15 -27 -32 -41 -72 -136
-168 -262 -268 -64 -51 -187 -114 -293 -150 -36 -12 -74 -26 -85 -30 -109 -45
-418 -49 -575 -7 -126 33 -223 71 -276 107 -23 17 -46 30 -49 30 -22 0 -192
148 -230 200 l-25 34 0 -160 c0 -115 -4 -165 -13 -178 -11 -16 -29 -17 -165
-14 -122 2 -155 6 -162 18 -14 22 -13 3065 0 3091 10 18 23 19 169 19 136 0
160 -2 165 -16z m286 -3880 l0 -305 -27 3 -28 3 -2 303 -3 302 30 0 30 0 0
-306z m160 0 l0 -305 -27 3 -28 3 -2 303 -3 302 30 0 30 0 0 -306z m3930 221
l0 -85 45 0 c41 0 45 -2 45 -25 0 -23 -4 -25 -45 -25 l-45 0 0 -195 0 -195
-25 0 -25 0 0 195 0 195 -45 0 c-41 0 -45 2 -41 23 2 18 10 23 44 25 l42 3 0
85 c0 83 0 84 25 84 25 0 25 -1 25 -85z m-4935 51 c45 -30 67 -75 62 -130 -4
-42 -10 -55 -41 -83 -32 -29 -35 -37 -15 -35 19 3 90 -74 100 -108 25 -83 -31
-186 -114 -209 -23 -7 -85 -11 -137 -9 l-95 3 -3 285 c-1 157 0 291 3 299 8
21 204 11 240 -13z m3843 -1 l-2 -25 -143 0 -143 0 0 -100 0 -100 140 0 140 0
0 -25 0 -25 -140 0 -140 0 0 -125 0 -125 140 0 140 0 0 -25 0 -25 -165 0 -165
0 0 300 0 300 170 0 170 0 -2 -25z m-3320 -144 c20 -10 46 -28 56 -40 27 -30
36 -26 36 14 0 31 3 35 25 35 l25 0 0 -220 0 -220 -25 0 c-23 0 -25 4 -25 43
l-1 42 -23 -27 c-92 -104 -263 -83 -346 41 -27 40 -30 53 -30 121 0 83 17 122
78 175 57 51 167 68 230 36z m799 5 c2 -2 -1 -13 -7 -23 -9 -13 -21 -18 -44
-15 -37 4 -65 -17 -89 -70 -14 -29 -17 -66 -17 -182 l0 -146 -25 0 -25 0 0
220 0 220 25 0 c21 0 25 -5 25 -32 1 -32 1 -33 18 -13 34 40 66 56 101 51 18
-3 35 -7 38 -10z m372 -12 c86 -43 134 -152 112 -255 -37 -173 -254 -238 -376
-112 -59 60 -68 86 -63 173 4 60 10 84 30 114 30 43 87 86 132 97 41 10 128 1
165 -17z m557 -7 c79 -50 109 -106 109 -203 0 -50 -5 -69 -30 -109 -97 -157
-298 -152 -395 8 -14 23 -20 50 -20 93 0 112 38 176 133 223 56 28 149 23 203
-12z m475 21 c37 -13 64 -39 80 -78 l11 -25 13 26 c20 38 81 80 123 86 62 7
113 -17 142 -68 23 -41 25 -54 28 -211 l4 -168 -26 0 c-30 0 -28 -13 -26 168
2 182 -21 231 -108 232 -31 0 -53 -7 -77 -26 -53 -40 -65 -84 -65 -239 l0
-135 -25 0 -25 0 0 143 c0 203 -16 243 -99 254 -49 7 -100 -21 -131 -72 -18
-29 -22 -56 -27 -180 -6 -132 -8 -145 -25 -145 -17 0 -18 13 -18 220 0 213 1
220 20 220 16 0 20 -7 20 -34 0 -19 5 -38 10 -41 6 -3 10 -1 10 4 0 17 36 49
72 65 41 18 76 19 119 4z m1509 -14 c27 -14 51 -33 54 -40 10 -27 26 -14 26
21 0 31 3 35 25 35 l25 0 0 -220 0 -220 -25 0 c-23 0 -25 4 -25 43 l-1 42 -24
-28 c-31 -35 -105 -67 -158 -67 -74 0 -165 60 -201 132 -20 39 -21 144 -2 190
48 115 199 170 306 112z m413 15 c43 -22 68 -51 56 -66 -15 -18 -29 -16 -44 4
-8 10 -29 17 -56 19 -111 6 -101 -95 15 -151 87 -43 118 -109 85 -183 -18 -42
-79 -75 -127 -69 -54 6 -112 37 -112 59 0 28 26 32 56 9 30 -24 90 -28 116 -7
26 19 36 56 25 87 -7 18 -31 37 -72 59 -34 18 -71 47 -83 64 -25 36 -29 97 -9
135 20 40 106 63 150 40z"/>
<path d="M1853 3965 c-85 -15 -198 -57 -248 -91 -20 -13 -40 -24 -45 -24 -6 0
-10 -4 -10 -10 0 -5 -7 -10 -15 -10 -8 0 -15 -4 -15 -8 0 -4 -13 -15 -29 -25
-28 -16 -131 -112 -131 -121 0 -3 -11 -17 -25 -32 -14 -15 -35 -48 -48 -73
-12 -25 -25 -48 -28 -51 -11 -10 -57 -137 -70 -195 -8 -37 -14 -121 -13 -215
0 -180 21 -282 80 -397 165 -319 429 -477 784 -468 178 4 274 32 424 124 115
70 181 136 263 263 56 86 80 142 109 253 42 159 29 398 -27 532 -38 91 -94
194 -121 224 -16 17 -28 32 -28 34 0 10 -146 146 -162 151 -10 3 -18 10 -18
15 0 5 -5 9 -10 9 -6 0 -27 11 -48 25 -133 87 -374 125 -569 90z"/>
<path d="M3940 3974 c-136 -17 -282 -71 -358 -131 -90 -70 -116 -94 -144 -134
-18 -24 -41 -53 -50 -63 -10 -11 -18 -25 -18 -32 0 -7 -4 -14 -8 -16 -7 -3
-102 -209 -102 -222 0 -3 353 -6 785 -6 659 0 785 2 785 14 0 35 -84 226 -102
234 -5 2 -8 10 -8 17 0 7 -4 15 -8 17 -5 2 -23 24 -40 50 -18 26 -47 57 -65
69 -17 13 -34 26 -37 29 -26 28 -139 91 -232 128 -85 34 -297 58 -398 46z"/>
<path d="M440 1350 l0 -103 64 5 c98 8 144 58 124 134 -12 46 -31 57 -113 62
l-75 5 0 -103z"/>
<path d="M440 1075 l0 -125 71 0 c84 0 127 17 152 61 27 48 22 99 -12 138 -33
36 -77 50 -158 51 l-53 0 0 -125z"/>
<path d="M998 1286 c-39 -17 -78 -56 -94 -93 -18 -42 -18 -111 1 -143 8 -14
18 -33 21 -43 10 -27 97 -67 146 -67 49 0 104 29 138 73 33 42 38 129 10 189
-36 82 -139 121 -222 84z"/>
<path d="M2148 1293 c-10 -2 -18 -9 -18 -14 0 -5 -4 -9 -10 -9 -16 0 -44 -33
-64 -74 -29 -61 -19 -141 24 -194 43 -54 92 -69 168 -54 63 13 101 47 126 114
16 41 17 52 5 98 -17 67 -62 119 -114 130 -42 10 -87 11 -117 3z"/>
<path d="M2698 1293 c-10 -3 -18 -9 -18 -14 0 -5 -6 -9 -12 -9 -23 -1 -70 -80
-76 -125 -7 -67 5 -106 46 -152 31 -33 47 -43 85 -48 26 -4 63 -4 82 -1 46 9
98 60 120 118 15 42 16 54 5 95 -14 53 -50 107 -81 124 -22 11 -121 19 -151
12z"/>
<path d="M4691 1284 c-42 -19 -54 -31 -80 -80 -25 -46 -27 -118 -6 -154 8 -14
18 -33 21 -43 10 -27 97 -67 146 -67 86 1 156 67 165 154 15 149 -113 248
-246 190z"/>
</g>
</svg>
